# Blender 3.1.0 Beta
# www.blender.org
mtllib star_bit.mtl
o star_bit
v 32.169922 -14.833983 -4.908206
v 32.964844 -24.041014 -8.943363
v 28.822266 -16.246092 -13.519534
v 28.455078 -21.232422 0.691403
v 27.685547 -11.013673 5.810545
v 22.208984 -17.416018 11.660153
v 27.974609 -5.498050 18.548828
v 15.109375 -11.269535 22.353514
v 21.154297 1.746090 26.511719
v 5.410156 -2.949224 30.210938
v 14.130859 10.943356 21.404299
v 5.689453 13.873042 30.544924
v 11.771484 24.417965 21.310551
v 5.085938 26.078119 30.326176
v 0.171875 28.115231 21.492191
v -4.250000 20.470699 28.208988
v -12.546875 22.382809 18.298832
v -16.203125 13.351558 24.261721
v -27.242188 17.310545 17.509768
v -24.671875 6.941403 19.017580
v -33.945312 10.828123 11.312502
v -30.041016 -0.060549 11.640625
v -31.664062 3.865234 1.037110
v -34.398438 -9.435547 2.833982
v -34.140625 -5.767577 -7.648439
v -37.564453 -16.480469 -4.818362
v -28.181641 -14.939451 -12.994143
v -28.533203 -19.982422 1.427731
v -17.908203 -20.195311 -7.384769
v -16.357422 -24.048830 10.339840
v -13.093750 -32.130859 -2.623052
v -2.904297 -28.779299 6.048823
v -1.076172 -34.345703 -5.822272
v 10.332031 -28.931641 0.830073
v 11.265625 -26.953123 -8.978520
v 22.869141 -26.623047 -4.472660
v 23.087891 -23.585936 -13.230473
v 28.822266 -16.246092 -13.519534
v -12.746094 -27.171873 -16.808598
v -15.503906 -11.900387 -23.826174
v -24.220703 -1.841794 -18.054688
v -29.498047 7.660157 -10.068358
v -33.691406 14.521484 0.771486
v -36.867188 20.494139 10.718754
v -22.800781 25.003904 10.759769
v -7.132812 29.367186 10.371099
v 6.468750 28.132811 9.951177
v 19.689453 22.228514 8.347660
v 27.130859 12.117186 17.427736
v 32.373047 4.404293 23.273438
v 31.828125 1.140623 12.742188
v 29.988281 -3.667969 -0.273439
v 28.017578 -5.580077 -9.906251
v 22.953125 -6.701169 -18.484377
v -26.785156 23.261719 0.423832
v -23.878906 17.632814 -10.923825
v -15.349609 25.861330 -10.851558
v -17.748047 21.644535 -23.580074
v -4.855469 23.402348 -19.185543
v -8.591797 16.929693 -30.039061
v 6.773438 16.689457 -25.050779
v -4.726562 2.847661 -27.455078
v 7.990234 2.964849 -33.687500
v -1.291016 -8.859369 -33.218750
v 9.183594 -7.146478 -39.482422
v 9.806641 -14.279292 -30.099611
v 15.753906 -6.666011 -30.402346
v 18.089844 -15.281247 -19.212893
v 22.953125 -6.701169 -18.484377
v 17.429688 -24.640627 6.544918
v 14.388672 -27.474613 21.126949
v 6.332031 -21.820316 29.162106
v -6.025391 -15.386723 22.789061
v -10.236328 -6.798833 32.220703
v -19.423828 -15.677738 23.753904
v -22.042969 -9.136724 33.193359
v -25.861328 -5.373051 23.677734
v -19.187500 1.068354 29.837891
v -26.785156 23.261719 0.423832
v -12.253906 29.117188 -0.074214
v -0.814453 38.166016 0.037115
v 10.824219 35.019531 -1.664056
v 14.656250 21.978518 -9.304685
v 27.181641 19.603516 -5.570309
v 21.796875 17.289066 -19.482420
v 32.433594 17.003908 -15.505857
v 8.597656 -33.070316 15.775385
v 7.396484 -35.445316 27.796869
v -2.701172 -30.550785 20.832026
v 26.820312 9.677733 4.220705
v 31.828125 7.955080 -8.371093
v 28.355469 6.490237 -17.300779
v 16.230469 5.031254 -23.322266
v 6.773438 16.689457 -25.050779
v 10.796875 -22.283199 -17.814457
v -0.851562 -31.191404 -14.904302
v -10.173828 -38.054684 -11.775397
v -24.623047 12.958988 -23.236326
v -20.283203 17.341803 -33.042965
v -18.035156 4.906255 -29.562500
v 5.349609 32.666019 -15.810541
v -4.855469 23.402348 -19.185543
v -4.777344 36.433594 -10.236322
v -15.349609 25.861330 -10.851558
v -24.976562 -12.546877 11.789060
v 3.451172 44.146484 -8.800774
v -2.193359 -18.527340 -22.255863
v -5.929688 5.953120 29.025393
v 16.230469 5.031254 -23.322266
vn 0.8891 0.2459 -0.3860
vn 0.8851 -0.1206 0.4494
vn 0.8930 -0.1460 0.4256
vn 0.8172 -0.2078 0.5376
vn 0.8287 -0.5202 0.2065
vn 0.4624 -0.6007 0.6522
vn 0.4330 -0.4505 0.7807
vn 0.3246 -0.4213 0.8468
vn 0.0484 0.5129 0.8571
vn 0.7303 -0.0257 0.6827
vn 0.7492 0.1357 0.6484
vn 0.8066 0.0504 0.5889
vn 0.3040 0.9513 0.0503
vn -0.5315 0.7114 0.4597
vn -0.4560 0.7215 0.5210
vn -0.5501 0.6037 0.5770
vn -0.2485 0.6018 0.7591
vn -0.5233 -0.0058 0.8521
vn -0.6508 -0.0512 0.7575
vn -0.6764 -0.2214 0.7024
vn -0.9413 -0.3369 0.0193
vn -0.9471 0.2256 0.2285
vn -0.9770 0.2074 0.0485
vn -0.9414 0.3248 0.0905
vn -0.6580 0.0114 -0.7530
vn -0.1341 -0.9344 -0.3300
vn -0.2856 -0.9025 -0.3225
vn -0.1801 -0.9643 -0.1939
vn -0.9274 -0.3742 -0.0002
vn -0.1421 -0.8556 0.4977
vn -0.0563 -0.9073 0.4168
vn 0.1631 -0.8834 0.4393
vn 0.4853 -0.8649 -0.1283
vn 0.1006 -0.9771 -0.1875
vn 0.1511 -0.9351 -0.3205
vn 0.0972 -0.9411 -0.3239
vn 0.3649 -0.3195 -0.8745
vn -0.8882 -0.4264 -0.1708
vn -0.9131 -0.2945 -0.2821
vn -0.1892 -0.8653 -0.4642
vn -0.6311 -0.1060 -0.7684
vn -0.7123 -0.0549 -0.6997
vn -0.7424 0.1386 -0.6554
vn -0.9465 0.3133 -0.0776
vn -0.9502 -0.1870 -0.2492
vn -0.9780 -0.1883 -0.0895
vn -0.9474 -0.2941 -0.1259
vn -0.6004 -0.1330 0.7886
vn -0.2307 0.7136 0.6615
vn -0.2824 0.7196 0.6343
vn -0.2089 0.8001 0.5623
vn -0.4580 0.7985 0.3907
vn 0.0918 0.9944 0.0516
vn 0.3018 0.9388 0.1661
vn 0.4159 0.9037 0.1014
vn 0.8546 0.1531 0.4962
vn 0.1436 0.7176 0.6814
vn 0.1890 0.5831 0.7901
vn 0.0724 0.6332 0.7706
vn 0.3485 -0.5252 0.7763
vn 0.8935 -0.4399 0.0901
vn 0.9064 -0.3947 0.1503
vn 0.9496 -0.3130 -0.0186
vn 0.9252 0.0236 0.3787
vn 0.9270 0.2832 -0.2459
vn 0.9022 0.1979 -0.3832
vn 0.8227 0.2371 -0.5167
vn -0.6777 0.5146 -0.5253
vn -0.7091 0.5424 -0.4506
vn -0.6100 0.6365 -0.4720
vn -0.6898 0.7160 -0.1072
vn -0.0238 0.9503 -0.3103
vn 0.0642 0.8472 -0.5274
vn 0.1914 0.8126 -0.5505
vn 0.3063 -0.0898 -0.9477
vn -0.3932 0.4645 -0.7935
vn -0.4224 0.2976 -0.8562
vn -0.5199 0.3777 -0.7662
vn -0.2194 -0.7837 -0.5812
vn 0.6873 -0.5555 -0.4680
vn 0.6507 -0.5299 -0.5439
vn 0.7827 -0.4034 -0.4740
vn 0.4483 -0.1798 -0.8756
vn 0.3958 -0.8152 0.4229
vn 0.4472 -0.8155 0.3675
vn 0.4926 -0.6959 0.5226
vn 0.8135 -0.5787 0.0572
vn 0.8086 -0.0801 0.5829
vn 0.6728 -0.0855 0.7348
vn 0.6226 -0.0131 0.7824
vn -0.4866 -0.0722 0.8706
vn 0.2528 -0.6565 0.7107
vn 0.0652 -0.7232 0.6876
vn 0.2030 -0.7776 0.5951
vn -0.8413 -0.5246 0.1301
vn -0.7980 0.3777 0.4696
vn -0.7839 0.2845 0.5518
vn -0.6880 0.4319 0.5832
vn -0.3049 0.9514 -0.0428
vn -0.3741 0.9273 -0.0121
vn -0.2643 0.9585 0.1066
vn -0.5981 0.7527 0.2752
vn 0.0873 0.7315 0.6762
vn 0.2912 0.7710 0.5663
vn 0.3910 0.7199 0.5735
vn 0.8767 0.4074 -0.2557
vn 0.2067 0.9757 -0.0728
vn 0.2525 0.9339 -0.2531
vn 0.1014 0.9743 -0.2013
vn 0.2971 -0.9034 0.3092
vn 0.5967 -0.7885 -0.1491
vn 0.6928 -0.7211 0.0043
vn 0.7232 -0.6877 -0.0636
vn 0.7001 -0.0168 0.7138
vn -0.6039 -0.1260 0.7870
vn -0.5359 -0.2226 0.8144
vn -0.6603 -0.2367 0.7127
vn 0.8723 0.4524 -0.1853
vn 0.8986 0.4272 -0.1000
vn 0.9228 0.3003 -0.2414
vn 0.9291 0.1008 0.3557
vn 0.9565 -0.2528 -0.1455
vn 0.9204 -0.2227 -0.3214
vn 0.8376 -0.3022 -0.4550
vn 0.4525 -0.1059 -0.8855
vn 0.8468 0.5192 -0.1158
vn 0.8497 0.3543 0.3906
vn 0.9038 0.2834 0.3207
vn 0.8808 0.2555 0.3987
vn 0.9048 -0.2993 -0.3028
vn 0.3506 0.0238 -0.9362
vn 0.4352 0.0832 -0.8965
vn 0.3394 0.1374 -0.9306
vn 0.4129 -0.3556 -0.8385
vn 0.2696 -0.4508 -0.8510
vn 0.0817 -0.8794 -0.4691
vn 0.4782 -0.7658 -0.4301
vn 0.4378 -0.8526 -0.2853
vn 0.5101 -0.8163 -0.2709
vn -0.0110 -0.8410 0.5408
vn -0.9519 -0.2813 -0.1216
vn -0.7559 0.3802 -0.5330
vn -0.8686 0.4784 -0.1291
vn -0.7743 0.6057 -0.1831
vn -0.7835 0.6174 -0.0708
vn 0.1446 0.8856 -0.4414
vn 0.2353 -0.2223 -0.9462
vn 0.1331 -0.1434 -0.9807
vn 0.1022 -0.3075 -0.9460
vn 0.0964 0.9280 -0.3600
vn 0.7775 0.3654 -0.5119
vn -0.1548 0.4842 -0.8611
vn -0.2356 0.5511 -0.8005
vn -0.4616 0.5041 -0.7300
vn -0.7068 0.7074 -0.0107
vn -0.3734 0.9123 -0.1684
vn -0.6203 -0.4322 0.6545
vn -0.6873 -0.4575 0.5642
vn -0.6089 -0.5306 0.5897
vn -0.7718 -0.6036 0.2002
vn 0.0570 -0.8411 0.5379
vn 0.7991 0.4609 -0.3859
vn 0.8413 0.3761 -0.3882
vn -0.2885 0.4637 -0.8377
vn -0.6900 0.7088 0.1466
vn -0.6175 0.7793 0.1068
vn 0.0038 -0.4190 -0.9080
vn -0.0323 -0.5043 -0.8629
vn -0.1090 -0.4312 -0.8956
vn -0.2767 -0.7093 -0.6483
vn -0.5702 0.2221 -0.7909
vn 0.0174 0.3079 0.9513
vn -0.0343 0.2538 0.9667
vn 0.0709 0.2199 0.9730
vn -0.1177 -0.0178 0.9929
vn -0.2248 0.0063 0.9744
vn -0.1800 0.0760 0.9807
vn -0.3623 0.0941 0.9273
vn -0.1043 0.4320 0.8958
vn -0.8225 -0.5120 0.2477
vn -0.9161 -0.3697 0.1549
vn -0.8791 0.2406 0.4114
vn -0.3598 -0.9270 -0.1061
vn -0.2634 -0.9582 -0.1112
vn -0.1205 -0.9530 -0.2779
vn 0.1547 -0.4837 -0.8615
vn -0.0572 -0.8386 -0.5417
vn -0.1720 -0.7318 -0.6595
vn 0.8251 0.2676 -0.4976
vn 0.6982 0.3497 -0.6247
vn 0.7316 0.4019 -0.5507
vn -0.8223 -0.2863 -0.4918
vn -0.8010 -0.2171 -0.5579
vn -0.7481 -0.3125 -0.5854
vn -0.7083 -0.2796 0.6481
vn -0.3028 -0.9288 -0.2137
vn 0.2873 0.7232 0.6280
vn -0.9016 -0.1645 -0.4000
vn 0.6570 0.4424 -0.6105
vn 0.5556 -0.6755 -0.4849
vt 0.349976 0.125000
vt 0.500000 0.000000
vt 0.250000 0.125000
vt 0.449951 0.125000
vt 0.299988 0.250000
vt 0.399963 0.250000
vt 0.349976 0.312500
vt 0.399963 0.375000
vt 0.349976 0.437500
vt 0.399963 0.500000
vt 0.299988 0.500000
vt 0.349976 0.437500
vt 0.250000 0.437500
vt 0.299988 0.375000
vt 0.250000 0.312500
vt 0.349976 0.312500
vt 0.299988 0.250000
vt 0.399963 0.250000
vt 0.449951 0.125000
vt 0.500000 0.250000
vt 0.549988 0.125000
vt 0.599976 0.250000
vt 0.699951 0.250000
vt 0.649963 0.312500
vt 0.750000 0.312500
vt 0.699951 0.375000
vt 0.750000 0.437500
vt 0.649963 0.437500
vt 0.699951 0.500000
vt 0.599976 0.500000
vt 0.649963 0.437500
vt 0.599976 0.375000
vt 0.649963 0.312500
vt 0.599976 0.250000
vt 0.699951 0.250000
vt 0.549988 0.125000
vt 0.649963 0.125000
vt 0.750000 0.125000
vt 0.750000 0.437500
vt 0.799988 0.500000
vt 0.799988 0.375000
vt 0.799988 0.250000
vt 0.649963 0.125000
vt 0.500000 0.000000
vt 0.349976 0.125000
vt 0.199951 0.250000
vt 0.199951 0.375000
vt 0.199951 0.500000
vt 0.250000 0.437500
vt 0.299988 0.375000
vt 0.250000 0.312500
vt 0.199951 0.250000
vt 0.099976 0.250000
vt 0.000000 0.250000
vt 0.750000 0.125000
vt 0.899963 0.250000
vt 1.000000 0.250000
vt 0.949951 0.312500
vt 1.000000 0.375000
vt 0.949951 0.437500
vt 1.000000 0.500000
vt 0.899963 0.500000
vt 0.949951 0.437500
vt 0.849976 0.437500
vt 0.899963 0.375000
vt 0.849976 0.312500
vt 0.949951 0.312500
vt 0.899963 0.250000
vt 1.000000 0.250000
vt 0.500000 0.250000
vt 0.449951 0.312500
vt 0.449951 0.437500
vt 0.500000 0.500000
vt 0.449951 0.437500
vt 0.549988 0.437500
vt 0.500000 0.375000
vt 0.549988 0.312500
vt 0.449951 0.312500
vt 0.250000 0.125000
vt 0.099976 0.250000
vt 0.149963 0.312500
vt 0.149963 0.437500
vt 0.099976 0.500000
vt 0.149963 0.437500
vt 0.049988 0.437500
vt 0.099976 0.375000
vt 0.549988 0.312500
vt 0.500000 0.375000
vt 0.549988 0.437500
vt 0.199951 0.375000
vt 0.149963 0.312500
vt 0.049988 0.312500
vt 0.000000 0.375000
vt 0.000000 0.500000
vt 0.799988 0.250000
vt 0.750000 0.312500
vt 0.699951 0.375000
vt 0.849976 0.312500
vt 0.899963 0.375000
vt 0.849976 0.437500
vt 0.049988 0.437500
vt 0.000000 0.375000
vt 0.049988 0.312500
vt 0.000000 0.250000
vt 0.599976 0.375000
vt 0.099976 0.375000
vt 0.799988 0.375000
vt 0.399963 0.375000
vt 1.000000 0.375000
s 0
usemtl mat
f 1/1/1 2/2/1 3/3/1
f 2/2/2 1/1/2 4/4/2
f 5/5/3 4/4/3 1/1/3
f 4/4/4 5/5/4 6/6/4
f 7/7/5 6/6/5 5/5/5
f 6/6/6 7/7/6 8/8/6
f 9/9/7 8/8/7 7/7/7
f 8/8/8 9/9/8 10/10/8
f 11/11/9 10/10/9 9/9/9
f 10/10/10 11/11/10 12/12/10
f 13/13/11 12/12/11 11/11/11
f 12/12/12 13/13/12 14/14/12
f 15/15/13 14/14/13 13/13/13
f 14/14/14 15/15/14 16/16/14
f 17/17/15 16/16/15 15/15/15
f 16/16/16 17/17/16 18/18/16
f 19/19/17 18/18/17 17/17/17
f 18/18/18 19/19/18 20/20/18
f 21/21/19 20/20/19 19/19/19
f 20/20/20 21/21/20 22/22/20
f 23/23/21 22/22/21 21/21/21
f 22/22/22 23/23/22 24/24/22
f 25/25/23 24/24/23 23/23/23
f 24/24/24 25/25/24 26/26/24
f 27/27/25 26/26/25 25/25/25
f 26/26/26 27/27/26 28/28/26
f 29/29/27 28/28/27 27/27/27
f 28/28/28 29/29/28 30/30/28
f 31/31/29 30/30/29 29/29/29
f 30/30/30 31/31/30 32/32/30
f 33/33/31 32/32/31 31/31/31
f 32/32/32 33/33/32 34/34/32
f 35/35/33 34/34/33 33/33/33
f 34/34/34 35/35/34 36/36/34
f 37/37/35 36/36/35 35/35/35
f 36/36/36 37/37/36 2/2/36
f 38/38/37 2/2/37 37/37/37
f 29/29/38 39/39/38 31/31/38
f 39/39/39 29/29/39 40/40/39
f 27/27/40 40/40/40 29/29/40
f 40/40/41 27/27/41 41/41/41
f 25/25/42 41/41/42 27/27/42
f 41/41/43 25/25/43 42/42/43
f 23/23/44 42/42/44 25/25/44
f 42/42/45 23/23/45 43/43/45
f 21/21/46 43/43/46 23/23/46
f 43/43/47 21/21/47 44/44/47
f 19/19/48 44/44/48 21/21/48
f 44/44/49 19/19/49 45/45/49
f 17/17/50 45/45/50 19/19/50
f 45/45/51 17/17/51 46/46/51
f 15/15/52 46/46/52 17/17/52
f 46/46/53 15/15/53 47/47/53
f 13/13/54 47/47/54 15/15/54
f 47/47/55 13/13/55 48/48/55
f 11/11/56 48/48/56 13/13/56
f 48/48/57 11/11/57 49/49/57
f 9/9/58 49/49/58 11/11/58
f 49/49/59 9/9/59 50/50/59
f 7/7/60 50/50/60 9/9/60
f 50/50/61 7/7/61 51/51/61
f 5/5/62 51/51/62 7/7/62
f 51/51/63 5/5/63 52/52/63
f 1/1/64 52/52/64 5/5/64
f 52/52/65 1/1/65 53/53/65
f 3/3/66 53/53/66 1/1/66
f 53/53/67 3/3/67 54/54/67
f 55/55/68 43/43/68 44/44/68
f 43/43/69 55/55/69 56/56/69
f 57/57/70 56/56/70 55/55/70
f 56/56/71 57/57/71 58/58/71
f 59/59/72 58/58/72 57/57/72
f 58/58/73 59/59/73 60/60/73
f 61/61/74 60/60/74 59/59/74
f 60/60/75 61/61/75 62/62/75
f 63/63/76 62/62/76 61/61/76
f 62/62/77 63/63/77 64/64/77
f 65/65/78 64/64/78 63/63/78
f 64/64/79 65/65/79 66/66/79
f 67/67/80 66/66/80 65/65/80
f 66/66/81 67/67/81 68/68/81
f 69/69/82 68/68/82 67/67/82
f 68/68/83 69/69/83 38/38/83
f 4/4/84 36/36/84 2/2/84
f 36/36/85 4/4/85 70/70/85
f 6/6/86 70/70/86 4/4/86
f 70/70/87 6/6/87 71/71/87
f 8/8/88 71/71/88 6/6/88
f 71/71/89 8/8/89 72/72/89
f 10/10/90 72/72/90 8/8/90
f 72/72/91 10/10/91 73/73/91
f 74/74/92 73/73/92 10/10/92
f 73/73/93 74/74/93 75/75/93
f 76/76/94 75/75/94 74/74/94
f 75/75/95 76/76/95 77/77/95
f 78/78/96 77/77/96 76/76/96
f 77/77/97 78/78/97 20/20/97
f 18/18/98 20/20/98 78/78/98
f 45/45/99 79/79/99 44/44/99
f 79/79/100 45/45/100 80/80/100
f 46/46/101 80/80/101 45/45/101
f 80/80/102 46/46/102 81/81/102
f 47/47/103 81/81/103 46/46/103
f 81/81/104 47/47/104 82/82/104
f 48/48/105 82/82/105 47/47/105
f 82/82/106 48/48/106 83/83/106
f 84/84/107 83/83/107 48/48/107
f 83/83/108 84/84/108 85/85/108
f 86/86/109 85/85/109 84/84/109
f 70/70/110 34/34/110 36/36/110
f 34/34/111 70/70/111 87/87/111
f 71/71/112 87/87/112 70/70/112
f 87/87/113 71/71/113 88/88/113
f 72/72/114 88/88/114 71/71/114
f 88/88/115 72/72/115 89/89/115
f 73/73/116 89/89/116 72/72/116
f 89/89/117 73/73/117 30/30/117
f 51/51/118 49/49/118 50/50/118
f 49/49/119 51/51/119 90/90/119
f 52/52/120 90/90/120 51/51/120
f 90/90/121 52/52/121 91/91/121
f 53/53/122 91/91/122 52/52/122
f 91/91/123 53/53/123 92/92/123
f 54/54/124 92/92/124 53/53/124
f 92/92/125 54/54/125 93/93/125
f 90/90/126 48/48/126 49/49/126
f 48/48/127 90/90/127 84/84/127
f 91/91/128 84/84/128 90/90/128
f 84/84/129 91/91/129 86/86/129
f 92/92/130 86/86/130 91/91/130
f 86/86/131 92/92/131 85/85/131
f 93/93/132 85/85/132 92/92/132
f 85/85/133 93/93/133 94/94/133
f 37/37/134 68/68/134 38/38/134
f 68/68/135 37/37/135 95/95/135
f 35/35/136 95/95/136 37/37/136
f 95/95/137 35/35/137 96/96/137
f 33/33/138 96/96/138 35/35/138
f 96/96/139 33/33/139 97/97/139
f 31/31/140 97/97/140 33/33/140
f 97/97/141 31/31/141 39/39/141
f 56/56/142 42/42/142 43/43/142
f 42/42/143 56/56/143 98/98/143
f 58/58/144 98/98/144 56/56/144
f 98/98/145 58/58/145 99/99/145
f 60/60/146 99/99/146 58/58/146
f 99/99/147 60/60/147 100/100/147
f 62/62/148 100/100/148 60/60/148
f 100/100/149 62/62/149 40/40/149
f 94/94/150 83/83/150 85/85/150
f 83/83/151 94/94/151 101/101/151
f 102/102/152 101/101/152 94/94/152
f 101/101/153 102/102/153 103/103/153
f 104/104/154 103/103/154 102/102/154
f 103/103/155 104/104/155 80/80/155
f 79/79/156 80/80/156 104/104/156
f 28/28/157 24/24/157 26/26/157
f 24/24/158 28/28/158 105/105/158
f 30/30/159 105/105/159 28/28/159
f 105/105/160 30/30/160 75/75/160
f 73/73/161 75/75/161 30/30/161
f 101/101/162 82/82/162 83/83/162
f 82/82/163 101/101/163 106/106/163
f 103/103/164 106/106/164 101/101/164
f 106/106/165 103/103/165 81/81/165
f 80/80/166 81/81/166 103/103/166
f 39/39/167 96/96/167 97/97/167
f 96/96/168 39/39/168 107/107/168
f 40/40/169 107/107/169 39/39/169
f 107/107/170 40/40/170 64/64/170
f 62/62/171 64/64/171 40/40/171
f 74/74/172 78/78/172 76/76/172
f 78/78/173 74/74/173 108/108/173
f 10/10/174 108/108/174 74/74/174
f 108/108/175 10/10/175 12/12/175
f 16/16/176 12/12/176 14/14/176
f 12/12/177 16/16/177 108/108/177
f 18/18/178 108/108/178 16/16/178
f 108/108/179 18/18/179 78/78/179
f 77/77/180 105/105/180 75/75/180
f 105/105/181 77/77/181 22/22/181
f 20/20/182 22/22/182 77/77/182
f 32/32/183 89/89/183 30/30/183
f 89/89/184 32/32/184 87/87/184
f 34/34/185 87/87/185 32/32/185
f 107/107/186 95/95/186 96/96/186
f 95/95/187 107/107/187 66/66/187
f 64/64/188 66/66/188 107/107/188
f 67/67/189 109/109/189 69/69/189
f 109/109/190 67/67/190 63/63/190
f 65/65/191 63/63/191 67/67/191
f 100/100/192 98/98/192 99/99/192
f 98/98/193 100/100/193 41/41/193
f 40/40/194 41/41/194 100/100/194
f 22/22/195 24/24/195 105/105/195
f 88/88/196 89/89/196 87/87/196
f 106/106/197 81/81/197 82/82/197
f 42/42/198 98/98/198 41/41/198
f 61/61/199 109/109/199 63/63/199
f 95/95/200 66/66/200 68/68/200
