<svg width="991" height="1320" xmlns="http://www.w3.org/2000/svg" xmlns:xlink="http://www.w3.org/1999/xlink" xml:space="preserve" overflow="hidden"><defs><clipPath id="clip0"><rect x="1705" y="578" width="991" height="1320"/></clipPath><linearGradient x1="2200" y1="578" x2="2200" y2="1898" gradientUnits="userSpaceOnUse" spreadMethod="reflect" id="fill1"><stop offset="0" stop-color="#FFFFFF"/><stop offset="0.5" stop-color="#FFFFFF"/><stop offset="0.95" stop-color="#FFFFFF" stop-opacity="0"/><stop offset="1" stop-color="#FFFFFF" stop-opacity="0"/></linearGradient></defs><g clip-path="url(#clip0)" transform="translate(-1705 -578)"><path d="M2690.89 1124.03 2540.15 1174.25C2528.82 1178.02 2516.84 1178.15 2505.46 1174.61L2268.86 1101.2C2262.34 1099.17 2255.41 1100.17 2249.5 1103.99L2156.04 1164.19 2156.04 1113.71 2248.55 1004.4 2309.25 947.004C2312.6 943.856 2317.02 942.804 2321.13 944.185L2494.23 1002.63C2497.6 1003.77 2501.21 1003.28 2504.27 1001.27L2598.48 939.48C2600.07 938.43 2600.64 936.057 2599.75 934.177 2599.04 932.675 2597.58 931.9 2596.16 932.271L2503.48 956.606C2500.88 957.281 2498.17 957.024 2495.7 955.861L2367.36 895.247 2406.98 770.394 2548.31 664.123C2550.87 662.193 2552.79 659.286 2553.76 655.885L2574.27 583.153C2574.85 581.115 2573.93 578.901 2572.21 578.208 2571.01 577.727 2569.68 578.096 2568.8 579.159L2525.9 629.855 2393.81 723.501 2346.23 681.376C2342.9 678.428 2340.95 673.803 2340.95 668.891L2340.95 611.574C2340.94 609.412 2339.45 607.665 2337.62 607.672 2336.53 607.677 2335.5 608.326 2334.89 609.404L2294.12 681.677C2290.63 687.867 2291.32 696.105 2295.77 701.368L2354.15 770.362 2302.66 861.63C2301.77 863.203 2300.65 864.572 2299.34 865.67L2283.26 879.23C2278.45 883.287 2271.95 883.079 2267.33 878.725L2174.14 790.687C2171.01 787.722 2169.19 783.241 2169.19 778.506L2169.19 693.273C2169.17 691.112 2167.68 689.376 2165.85 689.396 2164.62 689.409 2163.49 690.231 2162.93 691.53L2120.62 791.544C2118.11 797.573 2119.15 804.82 2123.19 809.54L2224.32 929.039 2122.94 1014.59C2118.96 1017.95 2113.73 1018.44 2109.36 1015.84L1984.38 942.014 1984.38 748.198C1984.39 742.586 1986.95 737.415 1991.08 734.653L2059.21 688.71C2060.8 687.651 2061.36 685.273 2060.46 683.4 2059.75 681.924 2058.33 681.158 2056.92 681.502L1954.55 705.694C1948.78 707.064 1944.47 712.769 1943.97 719.698L1931.47 895.247 1848.43 797.136C1842.25 789.827 1834.63 784.449 1826.26 781.483L1724.73 745.489C1722.98 744.868 1721.14 746.036 1720.62 748.097 1720.22 749.66 1720.69 751.352 1721.79 752.333L1812.59 832.829 1918.27 1004.5 2055.37 1107.54C2060.25 1111.2 2062.54 1118.21 2061.01 1124.8L2031.19 1254 1921.54 1128.62C1917.17 1123.64 1911.49 1120.59 1905.45 1119.97L1844.06 1113.49C1836.42 1112.68 1828.95 1110.31 1821.99 1106.47L1709.72 1044.52C1708.08 1043.59 1706.11 1044.41 1705.32 1046.35 1704.72 1047.83 1704.97 1049.59 1705.94 1050.76L1781.65 1143.97 1708.49 1192.78C1706.9 1193.85 1706.35 1196.22 1707.25 1198.1 1707.78 1199.21 1708.75 1199.94 1709.83 1200.06L1754.07 1205.24C1757.45 1205.63 1760.87 1205.25 1764.13 1204.11L1861.74 1170.15C1866.48 1168.51 1871.59 1170.11 1875 1174.31L1974.21 1296.3 1923.64 1318.4 1834.85 1358C1833.14 1358.76 1832.28 1361.01 1832.92 1363.02 1833.42 1364.62 1834.75 1365.64 1836.19 1365.54L1972.86 1358.57 2065.29 1390.53C2074.83 1393.85 2082.97 1401.3 2088.08 1411.38L2103.34 1441.48 2139.53 1569.63C2141.81 1577.68 2142.19 1586.31 2140.63 1594.6L2119.53 1706.82C2117.63 1716.93 2112.95 1726 2106.22 1732.63L2040.11 1797.71C2038.27 1799.53 2036.33 1801.2 2034.29 1802.7L1945.8 1868.1C1944.25 1869.23 1943.77 1871.62 1944.72 1873.46 1945.43 1874.82 1946.76 1875.53 1948.1 1875.26L2081.58 1848.96C2086.85 1847.91 2092.14 1850.71 2094.98 1856.06L2112.47 1889.53C2114.41 1893.19 2118.49 1894.29 2121.58 1892 2121.78 1891.84 2121.98 1891.68 2122.17 1891.5L2161.56 1854.47C2166.11 1850.19 2172.5 1849.94 2177.29 1853.84L2229.76 1896.61C2232.77 1899.07 2236.88 1898.18 2238.96 1894.63 2238.97 1894.61 2238.99 1894.58 2239 1894.56L2269.33 1841.5C2272.64 1835.68 2278.82 1833.18 2284.45 1835.4L2377.53 1872.06C2388.31 1876.31 2399.59 1878.47 2410.94 1878.48L2498.68 1878.48C2500.51 1878.47 2501.98 1876.7 2501.97 1874.54 2501.97 1873.08 2501.27 1871.74 2500.17 1871.08L2367.44 1792.69C2358.74 1787.56 2351.41 1779.68 2346.26 1769.94L2292.96 1669.18C2289.81 1663.22 2288.46 1656.18 2289.12 1649.19L2299.01 1543.93C2300.49 1528.05 2297.82 1512.02 2291.35 1497.99L2223.92 1351.9C2222.68 1349.23 2221.23 1346.7 2219.57 1344.35L2195.31 1309.94C2190.71 1303.43 2191.35 1293.78 2196.76 1288.2L2272.91 1209.47C2274.06 1208.26 2275.78 1208.17 2277.02 1209.24L2409.23 1322.87C2410.72 1324.12 2412.79 1323.71 2413.85 1321.95 2414.55 1320.78 2414.66 1319.25 2414.12 1317.95L2367.36 1207.34 2525.85 1231.11 2639.81 1314.66C2643.01 1317.01 2646.6 1318.53 2650.34 1319.1L2677.15 1323.23C2678.97 1323.46 2680.6 1321.9 2680.79 1319.75 2680.9 1318.57 2680.55 1317.4 2679.83 1316.56L2595.11 1219.19C2593.78 1217.73 2593.7 1215.26 2594.94 1213.69 2595.21 1213.35 2595.53 1213.07 2595.88 1212.86L2683.25 1158.69C2683.93 1158.28 2684.46 1157.6 2684.75 1156.77L2694.77 1129.24C2695.44 1127.24 2694.61 1124.97 2692.91 1124.18 2692.27 1123.88 2691.56 1123.83 2690.89 1124.03Z" fill="url(#fill1)" fill-rule="evenodd"/></g></svg>