# Blender v2.90.1 OBJ File: ''
# www.blender.org
o Cube
v 0.666319 0.666319 -1.000000
v 0.666319 1.000000 -0.666319
v 1.000000 0.666319 -0.666319
v 0.666319 0.902267 -0.902267
v 0.858970 0.858970 -0.858970
v 0.902267 0.902267 -0.666319
v 0.902267 0.666319 -0.902267
v 0.666319 -1.000000 -0.666319
v 0.666319 -0.666319 -1.000000
v 1.000000 -0.666319 -0.666319
v 0.666319 -0.902267 -0.902267
v 0.858970 -0.858970 -0.858970
v 0.902267 -0.666319 -0.902267
v 0.902267 -0.902267 -0.666319
v 1.000000 0.666319 0.666319
v 0.666319 1.000000 0.666319
v 0.666319 0.666319 1.000000
v 0.902267 0.902267 0.666319
v 0.858970 0.858970 0.858970
v 0.666319 0.902267 0.902267
v 0.902267 0.666319 0.902267
v 1.000000 -0.666319 0.666319
v 0.666319 -0.666319 1.000000
v 0.666319 -1.000000 0.666319
v 0.902267 -0.666319 0.902267
v 0.858970 -0.858970 0.858970
v 0.666319 -0.902267 0.902267
v 0.902267 -0.902267 0.666319
v -0.666319 0.666319 -1.000000
v -1.000000 0.666319 -0.666319
v -0.666319 1.000000 -0.666319
v -0.902267 0.666319 -0.902267
v -0.858970 0.858970 -0.858970
v -0.902267 0.902267 -0.666319
v -0.666319 0.902267 -0.902267
v -1.000000 -0.666319 -0.666319
v -0.666319 -0.666319 -1.000000
v -0.666319 -1.000000 -0.666319
v -0.902267 -0.666319 -0.902267
v -0.858970 -0.858970 -0.858970
v -0.666319 -0.902267 -0.902267
v -0.902267 -0.902267 -0.666319
v -1.000000 0.666319 0.666319
v -0.666319 0.666319 1.000000
v -0.666319 1.000000 0.666319
v -0.902267 0.666319 0.902267
v -0.858970 0.858970 0.858970
v -0.666319 0.902267 0.902267
v -0.902267 0.902267 0.666319
v -0.666319 -1.000000 0.666319
v -0.666319 -0.666319 1.000000
v -1.000000 -0.666319 0.666319
v -0.666319 -0.902267 0.902267
v -0.858970 -0.858970 0.858970
v -0.902267 -0.666319 0.902267
v -0.902267 -0.902267 0.666319
vt 0.166710 0.541710
vt 0.333290 0.541710
vt 0.333290 0.708290
vt 0.166710 0.708290
vt 0.416710 0.041710
vt 0.583290 0.041710
vt 0.583290 0.208290
vt 0.416710 0.208290
vt 0.416710 0.791710
vt 0.583290 0.791710
vt 0.583290 0.958290
vt 0.416710 0.958290
vt 0.666710 0.541710
vt 0.833290 0.541710
vt 0.833290 0.708290
vt 0.666710 0.708290
vt 0.416710 0.541710
vt 0.583290 0.541710
vt 0.583290 0.708290
vt 0.416710 0.708290
vt 0.583290 0.458290
vt 0.625000 0.458290
vt 0.619124 0.500000
vt 0.583290 0.500000
vt 0.625000 0.541710
vt 0.666710 0.500000
vt 0.333290 0.500000
vt 0.375000 0.505876
vt 0.375000 0.541710
vt 0.416710 0.458290
vt 0.416710 0.500000
vt 0.375000 0.458290
vt 0.625000 0.708290
vt 0.625000 0.744124
vt 0.583290 0.750000
vt 0.666710 0.750000
vt 0.625000 0.791710
vt 0.416710 0.750000
vt 0.380876 0.750000
vt 0.375000 0.708290
vt 0.375000 0.791710
vt 0.333290 0.750000
vt 0.583290 0.291710
vt 0.583290 0.250000
vt 0.607371 0.250000
vt 0.625000 0.291710
vt 0.625000 0.208290
vt 0.625000 0.232371
vt 0.833290 0.500000
vt 0.857371 0.500000
vt 0.875000 0.541710
vt 0.416710 0.250000
vt 0.392629 0.250000
vt 0.375000 0.208290
vt 0.416710 0.291710
vt 0.375000 0.291710
vt 0.375000 0.267629
vt 0.125000 0.541710
vt 0.125000 0.517629
vt 0.166710 0.500000
vt 0.583290 0.000000
vt 0.607371 0.000000
vt 0.625000 0.041710
vt 0.625000 0.958290
vt 0.625000 0.982371
vt 0.583290 1.000000
vt 0.875000 0.708290
vt 0.875000 0.732371
vt 0.833290 0.750000
vt 0.166710 0.750000
vt 0.142629 0.750000
vt 0.125000 0.708290
vt 0.416710 1.000000
vt 0.392629 1.000000
vt 0.375000 0.958290
vt 0.375000 0.041710
vt 0.375000 0.017629
vt 0.416710 0.000000
vn -0.1794 -0.9673 -0.1794
vn 0.1794 -0.9673 -0.1794
vn 0.1794 -0.9673 0.1794
vn -0.1794 -0.9673 0.1794
vn -0.9673 -0.1794 0.1794
vn -0.9673 0.1794 0.1794
vn -0.9673 0.1794 -0.1794
vn -0.9673 -0.1794 -0.1794
vn 0.1794 -0.1794 0.9673
vn 0.1794 0.1794 0.9673
vn -0.1794 0.1794 0.9673
vn -0.1794 -0.1794 0.9673
vn 0.1794 0.9673 -0.1794
vn -0.1794 0.9673 -0.1794
vn -0.1794 0.9673 0.1794
vn 0.1794 0.9673 0.1794
vn 0.9673 -0.1794 -0.1794
vn 0.9673 0.1794 -0.1794
vn 0.9673 0.1794 0.1794
vn 0.9673 -0.1794 0.1794
vn 0.1794 0.1794 -0.9673
vn 0.1726 0.6965 -0.6965
vn 0.5773 0.5773 -0.5773
vn 0.6965 0.1726 -0.6965
vn 0.6965 0.6965 -0.1726
vn 0.1726 -0.6965 -0.6965
vn 0.5773 -0.5773 -0.5773
vn 0.6965 -0.6965 -0.1726
vn 0.1794 -0.1794 -0.9673
vn 0.6965 -0.1726 -0.6965
vn 0.6965 0.6965 0.1726
vn 0.5773 0.5773 0.5773
vn 0.6965 0.1726 0.6965
vn 0.1726 0.6965 0.6965
vn 0.6965 -0.1726 0.6965
vn 0.5773 -0.5773 0.5773
vn 0.6965 -0.6965 0.1726
vn 0.1726 -0.6965 0.6965
vn -0.1794 0.1794 -0.9673
vn -0.6965 0.1726 -0.6965
vn -0.5773 0.5773 -0.5773
vn -0.1726 0.6965 -0.6965
vn -0.6965 0.6965 -0.1726
vn -0.6965 -0.1726 -0.6965
vn -0.5773 -0.5773 -0.5773
vn -0.6965 -0.6965 -0.1726
vn -0.1794 -0.1794 -0.9673
vn -0.1726 -0.6965 -0.6965
vn -0.6965 0.1726 0.6965
vn -0.5773 0.5773 0.5773
vn -0.6965 0.6965 0.1726
vn -0.1726 0.6965 0.6965
vn -0.1726 -0.6965 0.6965
vn -0.5773 -0.5773 0.5773
vn -0.6965 -0.6965 0.1726
vn -0.6965 -0.1726 0.6965
s 1
f 38/1/1 8/2/2 24/3/3 50/4/4
f 52/5/5 43/6/6 30/7/7 36/8/8
f 23/9/9 17/10/10 44/11/11 51/12/12
f 2/13/13 31/14/14 45/15/15 16/16/16
f 10/17/17 3/18/18 15/19/19 22/20/20
f 1/21/21 4/22/22 5/23/23 7/24/24
f 2/13/13 6/25/25 5/23/23 4/26/22
f 3/18/18 7/24/24 5/23/23 6/25/25
f 8/2/2 11/27/26 12/28/27 14/29/28
f 9/30/29 13/31/30 12/28/27 11/32/26
f 10/17/17 14/29/28 12/28/27 13/31/30
f 15/19/19 18/33/31 19/34/32 21/35/33
f 16/16/16 20/36/34 19/34/32 18/33/31
f 17/10/10 21/35/33 19/34/32 20/37/34
f 22/20/20 25/38/35 26/39/36 28/40/37
f 23/9/9 27/41/38 26/39/36 25/38/35
f 24/3/3 28/40/37 26/39/36 27/42/38
f 29/43/39 32/44/40 33/45/41 35/46/42
f 30/7/7 34/47/43 33/48/41 32/44/40
f 31/14/14 35/49/42 33/50/41 34/51/43
f 36/8/8 39/52/44 40/53/45 42/54/46
f 37/55/47 41/56/48 40/57/45 39/52/44
f 38/1/1 42/58/46 40/59/45 41/60/48
f 43/6/6 46/61/49 47/62/50 49/63/51
f 44/11/11 48/64/52 47/65/50 46/66/49
f 45/15/15 49/67/51 47/68/50 48/69/52
f 50/4/4 53/70/53 54/71/54 56/72/55
f 51/12/12 55/73/56 54/74/54 53/75/53
f 52/5/5 56/76/55 54/77/54 55/78/56
f 38/1/1 50/4/4 56/72/55 42/58/46
f 42/54/46 56/76/55 52/5/5 36/8/8
f 8/2/2 38/1/1 41/60/48 11/27/26
f 11/32/26 41/56/48 37/55/47 9/30/29
f 3/18/18 10/17/17 13/31/30 7/24/24
f 7/24/24 13/31/30 9/30/29 1/21/21
f 51/12/12 44/11/11 46/66/49 55/73/56
f 55/78/56 46/61/49 43/6/6 52/5/5
f 17/10/10 23/9/9 25/38/35 21/35/33
f 21/35/33 25/38/35 22/20/20 15/19/19
f 29/43/39 37/55/47 39/52/44 32/44/40
f 32/44/40 39/52/44 36/8/8 30/7/7
f 16/16/16 45/15/15 48/69/52 20/36/34
f 20/37/34 48/64/52 44/11/11 17/10/10
f 2/13/13 16/16/16 18/33/31 6/25/25
f 6/25/25 18/33/31 15/19/19 3/18/18
f 50/4/4 24/3/3 27/42/38 53/70/53
f 53/75/53 27/41/38 23/9/9 51/12/12
f 45/15/15 31/14/14 34/51/43 49/67/51
f 49/63/51 34/47/43 30/7/7 43/6/6
f 31/14/14 2/13/13 4/26/22 35/49/42
f 35/46/42 4/22/22 1/21/21 29/43/39
f 24/3/3 8/2/2 14/29/28 28/40/37
f 28/40/37 14/29/28 10/17/17 22/20/20
f 37/55/47 29/43/39 1/21/21 9/30/29
