# Blender v3.3.1 OBJ File: ''
# www.blender.org
mtllib monitor.mtl
o Plane
v 0.758935 0.215377 -0.638132
v -0.758935 0.215377 -0.638132
v -0.758935 0.111754 0.682940
v 0.758935 0.111754 0.682940
v 0.546433 -1.739169 -0.685131
v 0.546433 -1.810652 0.350651
v -0.546433 -1.810652 0.350651
v -0.546433 -1.739169 -0.685131
v -0.826633 -0.459631 -0.724086
v -0.823569 -0.571237 0.698753
v 0.823569 -0.571237 0.698753
v 0.826633 -0.459631 -0.724086
v -0.642453 -0.459631 -0.724086
v -0.447669 -1.631275 -0.688416
v 0.447669 -1.631275 -0.688416
v 0.641053 -0.459631 -0.724086
v -0.758935 0.363473 -0.626562
v -0.758935 0.259850 0.694511
v 1.000000 -0.584681 0.870151
v -1.000000 -0.584681 0.870151
v -1.000000 -0.443356 -0.931575
v -0.645492 -0.443356 -0.931575
v -0.645450 -0.446909 -0.886279
v 1.000000 -0.443356 -0.931575
v 0.641162 -0.450159 -0.844840
v 0.642767 -0.443356 -0.931575
v 1.000000 0.240999 0.934837
v -1.000000 0.240999 0.934837
v -1.000000 0.382324 -0.866888
v 1.000000 0.382324 -0.866888
v 0.763370 0.266369 -0.875973
v -0.763370 0.266369 -0.875973
v 0.758935 0.363473 -0.626562
v 0.758935 0.259850 0.694511
v 0.447669 -1.596003 -1.171544
v -0.447669 -1.596003 -1.171544
v -0.766161 0.277960 -1.034729
v 0.766161 0.277960 -1.034729
vt 0.001001 0.998999
vt 0.998999 0.998999
vt 0.998999 0.001001
vt 0.001001 0.001001
vt 0.621875 0.279200
vt 0.717036 0.374406
vt 0.616822 0.474574
vt 0.521660 0.379368
vt 0.390423 0.487270
vt 0.522488 0.616880
vt 0.859386 0.280139
vt 0.729838 0.148013
vt 0.709404 0.618025
vt 0.860444 0.467055
vt 0.616853 0.260907
vt 0.708421 0.137050
vt 0.280363 0.605005
vt 0.402723 0.725607
vt 0.389208 0.739328
vt 0.266847 0.618725
vt 0.892381 0.466649
vt 0.708983 0.649961
vt 0.151808 0.499502
vt 0.168571 0.482495
vt 0.171303 0.518163
vt 0.170929 0.518456
vt 0.021544 0.670106
vt 0.018104 0.635155
vt 0.054056 0.637119
vt 0.968291 0.542595
vt 0.784894 0.725907
vt 0.203567 0.485428
vt 0.280043 0.560805
vt 0.098019 0.745482
vt 0.108815 0.713047
vt 0.247767 0.572070
vt 0.446922 0.725287
vt 0.355427 0.484337
vt 0.522306 0.648818
vt 0.803425 0.037667
vt 0.967829 0.204624
vt 0.891325 0.279972
vt 0.726921 0.113016
vt 0.142219 0.745163
vt 0.847624 0.038008
vt 0.968169 0.160424
vt 0.968281 0.586795
vt 0.829094 0.725917
vt 0.861351 0.024499
vt 0.981896 0.146916
vt 0.981896 0.600417
vt 0.842710 0.739539
vt 0.294079 0.618524
vt 0.155935 0.758682
vt 0.558525 0.233934
vt 0.476423 0.315997
vt 0.275001 0.172891
vt 0.415513 0.032444
vt 0.689014 0.118506
vt 0.688588 0.118751
vt 0.400667 0.018104
vt 0.260667 0.158039
vt 0.602924 0.278354
vt 0.520823 0.360417
vt 0.339646 0.243535
vt 0.263095 0.189752
vt 0.034994 0.618019
vt 0.046168 0.629053
vt 0.361217 0.446206
vt 0.503370 0.374338
vt 0.379552 0.466009
vt 0.365210 0.450538
vt 0.461058 0.327925
vt 0.486164 0.097169
vt 0.432380 0.020547
vt 0.570412 0.218627
vn 0.0000 0.9969 0.0782
vn 0.0000 -0.9976 -0.0688
vn -0.9767 -0.2143 -0.0147
vn 0.9767 -0.2143 -0.0147
vn 0.0000 -0.2704 0.9627
vn 0.0000 -0.0304 -0.9995
vn 1.0000 0.0000 0.0000
vn 0.0000 -0.9969 -0.0782
vn 0.0000 -0.0781 0.9969
vn 0.0000 0.0781 -0.9969
vn -1.0000 0.0000 0.0000
vn 0.0000 0.0779 -0.9970
vn 0.0000 -0.0779 0.9970
vn 0.0000 0.0728 -0.9973
vn 0.9867 -0.1623 -0.0046
vn 0.9864 -0.1642 -0.0111
vn 0.9861 -0.1661 0.0010
vn 0.0000 0.9973 0.0728
vn 0.0000 -0.9973 -0.0728
vn -0.9864 -0.1646 0.0030
vn -0.9861 -0.1660 -0.0076
vn -0.9864 -0.1643 0.0053
vn -0.9860 -0.1664 -0.0106
vn -0.9864 -0.1645 0.0015
vn -0.9859 -0.1667 -0.0122
vn 0.9858 -0.1679 0.0051
vn 0.9863 -0.1647 -0.0106
usemtl Display
s 1
f 1/1/1 2/2/1 3/3/1 4/4/1
usemtl Casing
f 5/5/2 6/6/2 7/7/2 8/8/2
f 9/9/3 8/8/3 7/7/3 10/10/3
f 11/11/4 6/6/4 5/5/4 12/12/4
f 10/13/5 7/7/5 6/6/5 11/14/5
f 12/12/6 5/5/6 15/15/6 16/16/6
f 17/17/7 18/18/7 3/19/7 2/20/7
f 11/14/8 19/21/8 20/22/8 10/13/8
f 13/23/8 9/24/8 22/25/8 23/26/8
f 24/27/8 12/28/8 26/29/8
f 27/30/9 28/31/9 20/22/9 19/21/9
f 21/32/10 29/33/10 30/34/10 24/27/10 26/29/10 31/35/10 32/36/10 22/25/10
f 28/37/11 29/33/11 21/38/11 20/39/11
f 30/40/7 27/41/7 19/42/7 24/43/7
f 17/17/1 33/44/1 30/34/1 29/33/1
f 33/45/1 34/46/1 27/41/1 30/40/1
f 34/47/1 18/48/1 28/31/1 27/30/1
f 18/18/1 17/17/1 29/33/1 28/37/1
f 34/46/11 33/45/11 1/49/11 4/50/11
f 18/48/12 34/47/12 4/51/12 3/52/12
f 33/44/13 17/17/13 2/53/13 1/54/13
f 35/55/14 36/56/14 37/57/14 38/58/14
f 25/59/15 16/16/15 15/15/16 26/60/17
f 31/61/18 38/58/18 37/57/18 32/62/18
f 36/56/19 35/55/19 15/63/19 14/64/19
f 37/57/20 22/65/21 32/66/22
f 12/12/8 24/43/8 19/42/8 11/11/8
f 26/29/8 12/28/8 16/67/8 25/68/8
f 21/38/8 9/9/8 10/10/8 20/39/8
f 22/25/8 9/24/8 21/32/8
f 22/69/21 14/70/23 13/71/24 23/72/24
f 22/69/21 36/73/25 14/70/23
f 26/74/17 38/58/26 31/75/26
f 38/58/26 26/74/17 35/55/27
f 26/60/17 15/15/16 35/76/27
f 22/65/21 37/57/20 36/56/25
f 14/70/6 8/8/6 9/9/6 13/71/6
f 15/63/6 5/5/6 8/8/6 14/64/6
o Plane.001_Plane.005
v -0.322753 -0.697849 -1.234480
v -0.322753 -0.697849 -0.935193
v -0.161377 -0.418337 -0.935193
v -0.161377 -0.418337 -1.234480
v 0.161377 -0.418337 -0.935193
v 0.161377 -0.418337 -1.234480
v 0.322753 -0.697849 -0.935193
v 0.322753 -0.697849 -1.234480
v 0.161377 -0.977361 -0.935193
v 0.161377 -0.977361 -1.234480
v -0.161377 -0.977361 -0.935193
v -0.161377 -0.977361 -1.234480
v -0.567604 -1.646876 -1.234480
v 0.567604 -1.646876 -1.234480
v 0.966745 0.372088 -1.234480
v -0.966745 0.372088 -1.234480
v 0.567604 -1.646876 -1.345341
v -0.567604 -1.646876 -1.345341
v -0.966745 0.372088 -1.345341
v 0.966745 0.372088 -1.345341
vt 1.000000 0.535685
vt 1.000000 1.000000
vt 0.833333 1.000000
vt 0.833333 0.535685
vt 0.666667 1.000000
vt 0.666667 0.535685
vt 0.500000 1.000000
vt 0.500000 0.535685
vt 0.333333 1.000000
vt 0.333333 0.535685
vt 0.457846 0.130000
vt 0.457846 0.370000
vt 0.250000 0.490000
vt 0.042154 0.370000
vt 0.042154 0.130000
vt 0.250000 0.010000
vt 0.166667 1.000000
vt 0.166667 0.535685
vt -0.000000 1.000000
vt -0.000000 0.535685
vt 0.331613 0.618454
vt 0.000000 1.000000
vt 0.000000 0.000000
vt 0.331613 0.381546
vt 1.000000 0.000000
vt 1.000000 1.000000
vt 0.470056 0.715765
vt 0.608500 0.599189
vt 0.608500 0.400811
vt 0.470056 0.284235
vt 0.000000 0.000000
vt 0.000000 1.000000
vt 1.000000 1.000000
vt 1.000000 0.000000
vn -0.8660 0.5000 0.0000
vn 0.0000 1.0000 0.0000
vn 0.8660 0.5000 0.0000
vn 0.8660 -0.5000 0.0000
vn 0.0000 -0.0000 1.0000
vn 0.0000 -1.0000 0.0000
vn -0.8660 -0.5000 0.0000
vn 0.0000 0.0000 -1.0000
vn -0.9810 -0.1939 0.0000
vn 0.9810 -0.1939 0.0000
usemtl Casing
s 1
f 39/77/28 40/78/28 41/79/28 42/80/28
f 42/80/29 41/79/29 43/81/29 44/82/29
f 44/82/30 43/81/30 45/83/30 46/84/30
f 46/84/31 45/83/31 47/85/31 48/86/31
f 43/87/32 41/88/32 40/89/32 49/90/32 47/91/32 45/92/32
f 48/86/33 47/85/33 49/93/33 50/94/33
f 50/94/34 49/93/34 40/95/34 39/96/34
f 50/97/32 51/98/32 52/99/32 48/100/32
f 48/100/32 52/99/32 53/101/32 54/102/32 51/98/32 50/97/32 39/103/32 42/104/32 44/105/32 46/106/32
f 55/107/35 56/108/35 57/109/35 58/110/35
f 54/102/36 57/109/36 56/108/36 51/98/36
f 52/99/37 55/107/37 58/110/37 53/101/37
f 53/101/29 58/110/29 57/109/29 54/102/29
f 51/98/33 56/108/33 55/107/33 52/99/33
